<?xml version="1.0" standalone="no"?><svg xmlns="http://www.w3.org/2000/svg" viewBox="0 0 1440 320"><path fill="#f35865" fill-opacity="1" d="M0,0L7.7,0C15.5,0,31,0,46,42.7C61.9,85,77,171,93,224C108.4,277,124,299,139,298.7C154.8,299,170,277,186,245.3C201.3,213,217,171,232,133.3C247.7,96,263,64,279,48C294.2,32,310,32,325,48C340.6,64,356,96,372,106.7C387.1,117,403,107,418,112C433.5,117,449,139,465,170.7C480,203,495,245,511,229.3C526.5,213,542,139,557,122.7C572.9,107,588,149,604,144C619.4,139,635,85,650,85.3C665.8,85,681,139,697,138.7C712.3,139,728,85,743,96C758.7,107,774,181,790,186.7C805.2,192,821,128,836,112C851.6,96,867,128,883,144C898.1,160,914,160,929,170.7C944.5,181,960,203,975,224C991,245,1006,267,1022,277.3C1037.4,288,1053,288,1068,282.7C1083.9,277,1099,267,1115,224C1130.3,181,1146,107,1161,85.3C1176.8,64,1192,96,1208,106.7C1223.2,117,1239,107,1254,128C1269.7,149,1285,203,1301,192C1316.1,181,1332,107,1347,101.3C1362.6,96,1378,160,1394,165.3C1409,171,1425,117,1432,90.7L1440,64L1440,320L1432.3,320C1424.5,320,1409,320,1394,320C1378.1,320,1363,320,1347,320C1331.6,320,1316,320,1301,320C1285.2,320,1270,320,1254,320C1238.7,320,1223,320,1208,320C1192.3,320,1177,320,1161,320C1145.8,320,1130,320,1115,320C1099.4,320,1084,320,1068,320C1052.9,320,1037,320,1022,320C1006.5,320,991,320,975,320C960,320,945,320,929,320C913.5,320,898,320,883,320C867.1,320,852,320,836,320C820.6,320,805,320,790,320C774.2,320,759,320,743,320C727.7,320,712,320,697,320C681.3,320,666,320,650,320C634.8,320,619,320,604,320C588.4,320,573,320,557,320C541.9,320,526,320,511,320C495.5,320,480,320,465,320C449,320,434,320,418,320C402.6,320,387,320,372,320C356.1,320,341,320,325,320C309.7,320,294,320,279,320C263.2,320,248,320,232,320C216.8,320,201,320,186,320C170.3,320,155,320,139,320C123.9,320,108,320,93,320C77.4,320,62,320,46,320C31,320,15,320,8,320L0,320Z"></path></svg>